<svg version="1.1" id="Layer_1" xmlns="http://www.w3.org/2000/svg" xmlns:xlink="http://www.w3.org/1999/xlink" x="0px" y="0px"
	 width="100%" viewBox="0 0 512 512" enable-background="new 0 0 512 512" xml:space="preserve">
<path fill="#000000" opacity="1.000000" stroke="none" 
	d="
M269.000000,0.999996 
	C350.298157,1.000000 431.596313,1.000000 512.947266,1.000000 
	C512.947266,171.557678 512.947266,342.115387 512.947266,513.000000 
	C430.644928,513.000000 348.289459,513.000000 265.140717,512.749695 
	C265.939667,510.686951 267.531891,508.874512 269.437683,506.920898 
	C272.520996,502.996429 275.288605,499.211609 278.060760,495.430084 
	C284.334442,486.872131 289.181641,477.753967 287.940369,466.692902 
	C287.277557,460.786591 286.001007,454.949219 285.461395,449.050293 
	C288.240448,449.013092 290.559845,449.024292 292.878754,448.996338 
	C302.008698,448.886383 307.980591,442.907501 307.999847,433.865875 
	C308.026642,421.276489 308.049408,408.687073 308.531128,396.053162 
	C311.646210,396.005981 314.304169,396.017303 316.961914,395.998077 
	C324.629944,395.942596 331.692657,390.525665 332.898987,383.051880 
	C334.886414,370.739166 336.433350,358.355347 338.473877,346.140015 
	C344.196075,353.238434 349.610352,360.198364 355.143372,367.464264 
	C357.509552,370.558197 359.743866,373.356842 362.006927,376.132050 
	C367.979340,383.455994 373.964172,390.769836 380.079559,398.405151 
	C382.277252,401.445557 384.084808,404.418304 386.457214,406.837036 
	C390.753662,411.217438 396.126465,412.244690 401.754578,409.912628 
	C406.955658,407.757507 409.847168,403.882629 410.087341,397.862793 
	C410.427612,389.335114 411.109528,380.801514 412.101349,372.323822 
	C413.672058,358.897308 415.099548,345.523407 413.039459,332.003815 
	C410.607025,316.041168 403.402649,302.458405 392.922546,290.428802 
	C386.118652,282.618958 379.380371,274.749908 372.463318,267.041382 
	C365.757904,259.568665 358.861572,252.267273 352.020020,244.460587 
	C352.327545,242.307358 352.951996,240.585083 352.957306,238.860886 
	C353.032166,214.616684 354.310272,190.233780 349.789124,166.290833 
	C346.425568,148.478409 342.156403,130.732651 336.730530,113.446892 
	C332.359070,99.520294 325.653534,86.326363 319.982483,72.447823 
	C311.407532,53.600994 300.302094,36.615788 288.429199,20.163923 
	C284.237244,14.355287 280.706146,7.439800 272.900970,4.581603 
	C271.483063,3.173824 270.241547,2.086907 269.000000,0.999996 
z"/>
<path fill="#000000" opacity="1.000000" stroke="none" 
	d="
M249.000000,513.000000 
	C166.369080,513.000000 83.738159,513.000000 1.053622,513.000000 
	C1.053622,342.442902 1.053622,171.885773 1.053622,1.000000 
	C82.021721,1.000000 163.043884,1.000000 244.848419,1.274234 
	C240.934280,5.023836 235.333618,7.755355 231.732758,12.132140 
	C224.618927,20.778826 218.132202,30.041973 212.274612,39.594982 
	C205.678741,50.352016 200.062271,61.709579 193.689026,72.974899 
	C188.894257,83.783791 184.111160,94.303253 180.039322,105.091179 
	C173.554596,122.271744 168.424454,139.889908 166.017593,158.143585 
	C164.059357,172.994934 161.926926,187.884094 161.210358,202.820709 
	C160.539490,216.804260 161.627289,230.872192 161.631027,245.041534 
	C156.550552,250.613968 151.791580,256.057922 147.007431,261.479675 
	C136.882584,272.953888 126.321915,284.075562 116.724205,295.974396 
	C105.913765,309.376709 99.547493,324.976227 100.154053,342.392548 
	C100.806190,361.117706 102.725983,379.796783 103.973450,398.503906 
	C104.539207,406.987976 112.802116,412.762482 121.013763,410.576141 
	C127.794518,408.770813 130.519943,403.101898 134.364227,397.963196 
	C139.125458,392.181244 143.620636,386.574432 148.002228,380.880188 
	C151.763031,375.992737 155.393967,371.005402 159.394119,365.928650 
	C165.081848,359.196960 170.457809,352.598785 175.908966,346.424347 
	C176.322342,348.747620 176.729156,350.637909 176.987320,352.548279 
	C178.355423,362.672363 179.215317,372.895477 181.211380,382.892578 
	C182.357635,388.633453 185.654922,393.897064 192.303329,395.012970 
	C196.783096,395.764893 201.389175,395.764252 205.960205,396.562073 
	C205.988342,409.611694 205.966766,422.199585 206.013412,434.787292 
	C206.037476,441.282837 209.835693,446.582855 216.277267,448.024628 
	C220.392365,448.945679 224.762909,448.725372 229.008392,449.414856 
	C225.492569,458.360016 225.186829,467.197815 226.635635,476.184723 
	C228.554626,488.088013 237.416885,496.099701 243.329926,505.756348 
	C244.920639,508.354187 247.094055,510.595184 249.000000,513.000000 
z"/>
<path fill="#FF4756" opacity="1.000000" stroke="none" 
	d="
M194.019775,72.805923 
	C200.062271,61.709579 205.678741,50.352016 212.274612,39.594982 
	C218.132202,30.041973 224.618927,20.778826 231.732758,12.132140 
	C235.333618,7.755355 240.934280,5.023836 245.315399,1.274234 
	C252.687576,1.000000 260.375153,1.000000 268.531372,0.999996 
	C270.241547,2.086907 271.483063,3.173824 272.586670,4.737398 
	C268.880463,8.118460 264.494080,10.432529 261.893890,14.035598 
	C253.368835,25.848564 245.195786,37.944534 237.481827,50.302742 
	C233.043365,57.413422 229.752029,65.240128 225.689575,72.835693 
	C225.271866,73.004173 225.108902,73.081474 224.486252,73.088852 
	C214.024307,72.947922 204.022049,72.876923 194.019775,72.805923 
z"/>
<path fill="#F7CF69" opacity="1.000000" stroke="none" 
	d="
M249.466858,513.000000 
	C247.094055,510.595184 244.920639,508.354187 243.329926,505.756348 
	C237.416885,496.099701 228.554626,488.088013 226.635635,476.184723 
	C225.186829,467.197815 225.492569,458.360016 229.402008,449.342621 
	C232.532623,448.655670 235.259079,448.439056 238.306396,448.391052 
	C243.095581,448.601715 247.563950,448.643707 251.994461,449.024475 
	C250.705460,456.176331 248.261307,463.022369 248.448227,469.795807 
	C248.853912,484.497162 258.835602,494.929749 266.914703,506.058014 
	C267.328033,506.627319 268.373138,506.737946 269.124084,507.062103 
	C267.531891,508.874512 265.939667,510.686951 264.673737,512.749695 
	C259.977905,513.000000 254.955811,513.000000 249.466858,513.000000 
z"/>
<path fill="#DFEBFA" opacity="1.000000" stroke="none" 
	d="
M224.945923,73.158768 
	C225.108902,73.081474 225.271866,73.004173 226.155792,72.918068 
	C257.912354,72.875290 288.947968,72.841331 319.983582,72.807365 
	C325.653534,86.326363 332.359070,99.520294 336.730530,113.446892 
	C342.156403,130.732651 346.425568,148.478409 349.789124,166.290833 
	C354.310272,190.233780 353.032166,214.616684 352.957306,238.860886 
	C352.951996,240.585083 352.327545,242.307358 351.831421,244.829803 
	C348.440521,268.867096 345.165527,292.099182 341.998016,315.345917 
	C340.607758,325.549072 339.436615,335.782043 338.165955,346.001495 
	C336.433350,358.355347 334.886414,370.739166 332.898987,383.051880 
	C331.692657,390.525665 324.629944,395.942596 316.961914,395.998077 
	C314.304169,396.017303 311.646210,396.005981 308.075439,395.912720 
	C296.876038,395.769989 286.589539,395.723175 276.252533,395.232971 
	C276.172852,371.408417 276.163879,348.027191 276.104858,324.646118 
	C276.080536,315.017670 271.571533,310.742615 261.507080,311.022949 
	C258.714203,310.947876 256.382477,310.925385 254.050751,310.926117 
	C241.195618,310.930145 237.900055,314.272461 237.870300,327.223785 
	C237.817871,350.039185 237.739014,372.854553 237.238556,395.666992 
	C233.877548,395.752808 230.949188,395.841553 227.652100,395.850159 
	C226.534348,395.698151 225.785370,395.626312 224.763641,395.373169 
	C217.575790,392.750793 213.366333,387.827637 212.251007,380.691101 
	C210.303696,368.231079 208.768402,355.707245 206.978760,343.221863 
	C203.870316,321.536163 200.488770,299.887268 197.623581,278.169891 
	C195.432831,261.564789 192.685471,244.902878 192.330215,228.220581 
	C191.935501,209.685425 193.087738,190.999786 195.142868,172.555298 
	C199.025421,137.710007 209.563446,104.658676 224.945923,73.158768 
M265.741760,256.950958 
	C294.398560,252.895157 317.891785,225.840378 314.178955,192.891464 
	C311.371307,167.975586 289.997681,145.829788 264.112885,142.979172 
	C261.461914,142.765152 258.798950,142.267944 256.161804,142.379868 
	C220.673874,143.886139 196.235245,172.310852 199.949738,207.664780 
	C203.200363,238.603714 234.193039,262.081482 265.741760,256.950958 
z"/>
<path fill="#FF4756" opacity="1.000000" stroke="none" 
	d="
M338.473877,346.140015 
	C339.436615,335.782043 340.607758,325.549072 341.998016,315.345917 
	C345.165527,292.099182 348.440521,268.867096 351.860474,245.259857 
	C358.861572,252.267273 365.757904,259.568665 372.463318,267.041382 
	C379.380371,274.749908 386.118652,282.618958 392.922546,290.428802 
	C403.402649,302.458405 410.607025,316.041168 413.039459,332.003815 
	C415.099548,345.523407 413.672058,358.897308 412.101349,372.323822 
	C411.109528,380.801514 410.427612,389.335114 410.087341,397.862793 
	C409.847168,403.882629 406.955658,407.757507 401.754578,409.912628 
	C396.126465,412.244690 390.753662,411.217438 386.457214,406.837036 
	C384.084808,404.418304 382.277252,401.445557 380.096008,397.962799 
	C380.318787,393.406555 380.678131,389.611511 380.998993,385.813263 
	C381.794403,376.398102 382.266998,366.943787 383.423981,357.573700 
	C385.499695,340.763123 383.203064,324.723633 375.451324,309.674957 
	C374.392731,307.619873 370.750916,305.243225 368.911438,305.664276 
	C366.653320,306.181122 363.866699,309.232666 363.352264,311.627472 
	C361.720642,319.223297 361.108612,327.033539 359.975067,334.742126 
	C358.384888,345.556335 356.680267,356.353729 355.024597,367.158295 
	C349.610352,360.198364 344.196075,353.238434 338.473877,346.140015 
z"/>
<path fill="#FF656F" opacity="1.000000" stroke="none" 
	d="
M319.982483,72.447823 
	C288.947968,72.841331 257.912354,72.875290 226.410522,72.826889 
	C229.752029,65.240128 233.043365,57.413422 237.481827,50.302742 
	C245.195786,37.944534 253.368835,25.848564 261.893890,14.035598 
	C264.494080,10.432529 268.880463,8.118460 272.763062,5.058260 
	C280.706146,7.439800 284.237244,14.355287 288.429199,20.163923 
	C300.302094,36.615788 311.407532,53.600994 319.982483,72.447823 
z"/>
<path fill="#736572" opacity="1.000000" stroke="none" 
	d="
M276.303101,395.676331 
	C286.589539,395.723175 296.876038,395.769989 307.618225,395.957245 
	C308.049408,408.687073 308.026642,421.276489 307.999847,433.865875 
	C307.980591,442.907501 302.008698,448.886383 292.878754,448.996338 
	C290.559845,449.024292 288.240448,449.013092 285.031677,448.962250 
	C273.438812,448.831635 262.735565,448.758698 252.032303,448.685730 
	C247.563950,448.643707 243.095581,448.601715 238.106232,448.110474 
	C232.285751,444.745483 228.892227,440.618103 228.784225,434.253754 
	C228.567474,421.478638 228.279465,408.704712 228.020844,395.930298 
	C230.949188,395.841553 233.877548,395.752808 237.310928,396.153717 
	C237.855652,400.966675 237.773224,405.295380 237.963776,409.612030 
	C238.247391,416.036896 242.616928,420.606201 249.001266,420.907166 
	C253.639542,421.125854 258.302063,420.830231 263.356171,420.820801 
	C271.708313,420.512390 275.892944,416.335449 276.081207,408.529541 
	C276.184540,404.245819 276.230988,399.960785 276.303101,395.676331 
z"/>
<path fill="#FF656F" opacity="1.000000" stroke="none" 
	d="
M355.143372,367.464264 
	C356.680267,356.353729 358.384888,345.556335 359.975067,334.742126 
	C361.108612,327.033539 361.720642,319.223297 363.352264,311.627472 
	C363.866699,309.232666 366.653320,306.181122 368.911438,305.664276 
	C370.750916,305.243225 374.392731,307.619873 375.451324,309.674957 
	C383.203064,324.723633 385.499695,340.763123 383.423981,357.573700 
	C382.266998,366.943787 381.794403,376.398102 380.998993,385.813263 
	C380.678131,389.611511 380.318787,393.406555 379.960510,397.645386 
	C373.964172,390.769836 367.979340,383.455994 362.006927,376.132050 
	C359.743866,373.356842 357.509552,370.558197 355.143372,367.464264 
z"/>
<path fill="#FDDF7A" opacity="1.000000" stroke="none" 
	d="
M251.994461,449.024475 
	C262.735565,448.758698 273.438812,448.831635 284.571777,448.992676 
	C286.001007,454.949219 287.277557,460.786591 287.940369,466.692902 
	C289.181641,477.753967 284.334442,486.872131 278.060760,495.430084 
	C275.288605,499.211609 272.520996,502.996429 269.437683,506.920929 
	C268.373138,506.737946 267.328033,506.627319 266.914703,506.058014 
	C258.835602,494.929749 248.853912,484.497162 248.448227,469.795807 
	C248.261307,463.022369 250.705460,456.176331 251.994461,449.024475 
z"/>
<path fill="#B1DBFC" opacity="1.000000" stroke="none" 
	d="
M224.486252,73.088852 
	C209.563446,104.658676 199.025421,137.710007 195.142868,172.555298 
	C193.087738,190.999786 191.935501,209.685425 192.330215,228.220581 
	C192.685471,244.902878 195.432831,261.564789 197.623581,278.169891 
	C200.488770,299.887268 203.870316,321.536163 206.978760,343.221863 
	C208.768402,355.707245 210.303696,368.231079 212.251007,380.691101 
	C213.366333,387.827637 217.575790,392.750793 224.303864,395.482666 
	C218.057480,395.882446 211.998108,395.991333 205.938751,396.100220 
	C201.389175,395.764252 196.783096,395.764893 192.303329,395.012970 
	C185.654922,393.897064 182.357635,388.633453 181.211380,382.892578 
	C179.215317,372.895477 178.355423,362.672363 176.987320,352.548279 
	C176.729156,350.637909 176.322342,348.747620 175.977539,345.989441 
	C175.923508,343.802155 175.997498,342.456146 175.810410,341.147522 
	C173.150879,322.544739 170.454391,303.947296 167.770187,285.348022 
	C165.824600,271.866699 163.883972,258.384705 161.941132,244.902985 
	C161.627289,230.872192 160.539490,216.804260 161.210358,202.820709 
	C161.926926,187.884094 164.059357,172.994934 166.017593,158.143585 
	C168.424454,139.889908 173.554596,122.271744 180.039322,105.091179 
	C184.111160,94.303253 188.894257,83.783791 193.689026,72.974899 
	C204.022049,72.876923 214.024307,72.947922 224.486252,73.088852 
z"/>
<path fill="#FF4756" opacity="1.000000" stroke="none" 
	d="
M161.631027,245.041534 
	C163.883972,258.384705 165.824600,271.866699 167.770187,285.348022 
	C170.454391,303.947296 173.150879,322.544739 175.810410,341.147522 
	C175.997498,342.456146 175.923508,343.802155 175.902344,345.565674 
	C170.457809,352.598785 165.081848,359.196960 159.140854,365.618713 
	C158.309021,363.650848 158.033646,361.860626 157.776764,360.067749 
	C155.498978,344.170013 153.200806,328.275116 150.966660,312.371246 
	C150.448700,308.684052 148.553955,305.352509 145.010727,305.538025 
	C142.539230,305.667419 139.178528,308.182190 138.003418,310.527496 
	C130.909088,324.686676 128.815826,339.873779 130.189697,355.571198 
	C131.430786,369.751526 132.759048,383.924255 134.048859,398.100342 
	C130.519943,403.101898 127.794518,408.770813 121.013763,410.576141 
	C112.802116,412.762482 104.539207,406.987976 103.973450,398.503906 
	C102.725983,379.796783 100.806190,361.117706 100.154053,342.392548 
	C99.547493,324.976227 105.913765,309.376709 116.724205,295.974396 
	C126.321915,284.075562 136.882584,272.953888 147.007431,261.479675 
	C151.791580,256.057922 156.550552,250.613968 161.631027,245.041534 
z"/>
<path fill="#FF656F" opacity="1.000000" stroke="none" 
	d="
M134.364227,397.963196 
	C132.759048,383.924255 131.430786,369.751526 130.189697,355.571198 
	C128.815826,339.873779 130.909088,324.686676 138.003418,310.527496 
	C139.178528,308.182190 142.539230,305.667419 145.010727,305.538025 
	C148.553955,305.352509 150.448700,308.684052 150.966660,312.371246 
	C153.200806,328.275116 155.498978,344.170013 157.776764,360.067749 
	C158.033646,361.860626 158.309021,363.650848 158.829086,365.752258 
	C155.393967,371.005402 151.763031,375.992737 148.002228,380.880188 
	C143.620636,386.574432 139.125458,392.181244 134.364227,397.963196 
z"/>
<path fill="#5B505B" opacity="1.000000" stroke="none" 
	d="
M205.960205,396.562042 
	C211.998108,395.991333 218.057480,395.882446 224.576599,395.664032 
	C225.785370,395.626312 226.534348,395.698151 227.652100,395.850159 
	C228.279465,408.704712 228.567474,421.478638 228.784225,434.253754 
	C228.892227,440.618103 232.285751,444.745483 237.785400,447.941833 
	C235.259079,448.439056 232.532623,448.655670 229.412537,448.944550 
	C224.762909,448.725372 220.392365,448.945679 216.277267,448.024628 
	C209.835693,446.582855 206.037476,441.282837 206.013412,434.787292 
	C205.966766,422.199585 205.988342,409.611694 205.960205,396.562042 
z"/>
<path fill="#8C99A6" opacity="1.000000" stroke="none" 
	d="
M264.926422,143.128082 
	C289.997681,145.829788 311.371307,167.975586 314.178955,192.891464 
	C317.891785,225.840378 294.398560,252.895157 265.093231,256.674133 
	C263.545349,255.981766 262.682465,255.438080 261.741150,255.169937 
	C247.881638,251.221893 237.220673,243.028275 229.360229,231.021072 
	C213.101227,206.184723 218.931076,171.930893 243.020660,154.557587 
	C249.631683,149.789749 257.587646,146.886795 264.926422,143.128082 
M265.448517,173.498337 
	C264.329407,173.184845 263.222626,172.815369 262.089294,172.566559 
	C251.593643,170.262390 239.093445,175.649658 233.572601,184.836151 
	C226.974243,195.815521 227.575882,208.304489 235.147141,217.521805 
	C242.953278,227.024994 254.990265,230.359131 266.820404,226.040878 
	C278.458038,221.336563 285.371185,211.009430 284.974548,198.921509 
	C284.594513,187.339493 277.148956,177.506424 265.448517,173.498337 
z"/>
<path fill="#77858F" opacity="1.000000" stroke="none" 
	d="
M264.519653,143.053619 
	C257.587646,146.886795 249.631683,149.789749 243.020660,154.557587 
	C218.931076,171.930893 213.101227,206.184723 229.360229,231.021072 
	C237.220673,243.028275 247.881638,251.221893 261.741150,255.169937 
	C262.682465,255.438080 263.545349,255.981766 264.689331,256.644684 
	C234.193039,262.081482 203.200363,238.603714 199.949738,207.664780 
	C196.235245,172.310852 220.673874,143.886139 256.161804,142.379868 
	C258.798950,142.267944 261.461914,142.765152 264.519653,143.053619 
z"/>
<path fill="#FF656F" opacity="1.000000" stroke="none" 
	d="
M276.252563,395.232971 
	C276.230988,399.960785 276.184540,404.245819 276.081207,408.529541 
	C275.892944,416.335449 271.708313,420.512390 263.115204,420.611420 
	C256.998474,417.010986 254.854202,412.244934 254.910141,405.758301 
	C255.133499,379.853363 255.126328,353.944366 254.918747,328.039185 
	C254.863800,321.180298 255.939758,315.213928 261.968262,311.086243 
	C271.571533,310.742615 276.080536,315.017670 276.104858,324.646118 
	C276.163879,348.027191 276.172852,371.408417 276.252563,395.232971 
z"/>
<path fill="#FF4756" opacity="1.000000" stroke="none" 
	d="
M261.507080,311.022949 
	C255.939758,315.213928 254.863800,321.180298 254.918747,328.039185 
	C255.126328,353.944366 255.133499,379.853363 254.910141,405.758301 
	C254.854202,412.244934 256.998474,417.010986 262.712799,420.554504 
	C258.302063,420.830231 253.639542,421.125854 249.001266,420.907166 
	C242.616928,420.606201 238.247391,416.036896 237.963776,409.612030 
	C237.773224,405.295380 237.855652,400.966675 237.743591,396.156616 
	C237.739014,372.854553 237.817871,350.039185 237.870300,327.223785 
	C237.900055,314.272461 241.195618,310.930145 254.050751,310.926117 
	C256.382477,310.925385 258.714203,310.947876 261.507080,311.022949 
z"/>
<path fill="#69D6F4" opacity="1.000000" stroke="none" 
	d="
M266.070801,173.956039 
	C277.148956,177.506424 284.594513,187.339493 284.974548,198.921509 
	C285.371185,211.009430 278.458038,221.336563 266.231476,225.808716 
	C264.564087,224.800766 263.496124,224.009949 262.405609,223.251495 
	C251.523941,215.683182 247.293381,203.330414 251.256027,190.850815 
	C253.735641,183.041779 259.893036,178.499954 266.070801,173.956039 
z"/>
<path fill="#52C1EC" opacity="1.000000" stroke="none" 
	d="
M265.759644,173.727188 
	C259.893036,178.499954 253.735641,183.041779 251.256027,190.850815 
	C247.293381,203.330414 251.523941,215.683182 262.405609,223.251495 
	C263.496124,224.009949 264.564087,224.800766 265.870911,225.835876 
	C254.990265,230.359131 242.953278,227.024994 235.147141,217.521805 
	C227.575882,208.304489 226.974243,195.815521 233.572601,184.836151 
	C239.093445,175.649658 251.593643,170.262390 262.089294,172.566559 
	C263.222626,172.815369 264.329407,173.184845 265.759644,173.727188 
z"/>
</svg>